if (_typeface_js && _typeface_js.loadFace) _typeface_js.loadFace({"glyphs":{"S":{"x_min":173.625,"x_max":1215.375,"ha":1389,"o":"m 694 173 l 694 520 l 347 520 l 347 694 l 173 694 l 173 868 l 347 868 l 347 1041 l 1041 1041 l 1041 868 l 520 868 l 520 694 l 1041 694 l 1041 520 l 1215 520 l 1215 173 l 1041 173 l 1041 0 l 347 0 l 347 173 l 694 173 m 347 347 l 347 173 l 173 173 l 173 347 l 347 347 "},"/":{"x_min":347.25,"x_max":1215.375,"ha":1389,"o":"m 694 520 l 868 520 l 868 347 l 694 347 l 694 520 m 868 694 l 1041 694 l 1041 520 l 868 520 l 868 694 m 1041 868 l 1215 868 l 1215 694 l 1041 694 l 1041 868 m 347 173 l 520 173 l 520 0 l 347 0 l 347 173 m 520 347 l 694 347 l 694 173 l 520 173 l 520 347 "},"K":{"x_min":173.625,"x_max":1215.375,"ha":1389,"o":"m 520 1041 l 520 694 l 694 694 l 694 868 l 868 868 l 868 1041 l 1215 1041 l 1215 868 l 1041 868 l 1041 694 l 868 694 l 868 347 l 1041 347 l 1041 173 l 1215 173 l 1215 0 l 868 0 l 868 173 l 694 173 l 694 347 l 520 347 l 520 0 l 173 0 l 173 1041 l 520 1041 "},"7":{"x_min":173.625,"x_max":1215.375,"ha":1389,"o":"m 520 347 l 520 520 l 694 520 l 694 694 l 868 694 l 868 868 l 173 868 l 173 1041 l 1215 1041 l 1215 694 l 1041 694 l 1041 520 l 868 520 l 868 0 l 347 0 l 347 347 l 520 347 "},"d":{"x_min":173.625,"x_max":1215.375,"ha":1389,"o":"m 1041 1041 l 1041 868 l 1215 868 l 1215 173 l 1041 173 l 1041 0 l 173 0 l 173 1041 l 1041 1041 m 347 173 l 694 173 l 694 868 l 347 868 l 347 173 "},",":{"x_min":520.875,"x_max":868.125,"ha":1389,"o":"m 520 0 l 520 347 l 868 347 l 868 -173 l 694 -173 l 694 0 l 520 0 "},"Y":{"x_min":173.625,"x_max":1215.375,"ha":1389,"o":"m 347 520 l 347 694 l 173 694 l 173 1041 l 520 1041 l 520 694 l 868 694 l 868 1041 l 1215 1041 l 1215 694 l 1041 694 l 1041 520 l 868 520 l 868 0 l 520 0 l 520 520 l 347 520 "},"E":{"x_min":173.625,"x_max":1215.375,"ha":1389,"o":"m 1215 1041 l 1215 868 l 520 868 l 520 694 l 1043 694 l 1043 520 l 520 520 l 520 173 l 1215 173 l 1215 0 l 173 0 l 173 1041 l 1215 1041 "},"y":{"x_min":173.625,"x_max":1215.375,"ha":1389,"o":"m 347 520 l 347 694 l 173 694 l 173 1041 l 520 1041 l 520 694 l 868 694 l 868 1041 l 1215 1041 l 1215 694 l 1041 694 l 1041 520 l 868 520 l 868 0 l 520 0 l 520 520 l 347 520 "},"\"":{"x_min":347.25,"x_max":1215.375,"ha":1389,"o":"m 347 694 l 347 1041 l 694 1041 l 694 520 l 520 520 l 520 694 l 347 694 m 868 694 l 868 1041 l 1215 1041 l 1215 520 l 1041 520 l 1041 694 l 868 694 "},"‹":{"x_min":694.5,"x_max":1215.375,"ha":1389,"o":"m 694 520 l 868 520 l 868 347 l 1041 347 l 1041 173 l 1215 173 l 1215 0 l 1041 0 l 1041 173 l 868 173 l 868 347 l 694 347 l 694 520 m 1041 868 l 1215 868 l 1215 694 l 1041 694 l 1041 868 m 868 694 l 1041 694 l 1041 520 l 868 520 l 868 694 "},"„":{"x_min":347.25,"x_max":1215.375,"ha":1389,"o":"m 347 0 l 347 347 l 694 347 l 694 -173 l 520 -173 l 520 0 l 347 0 m 868 0 l 868 347 l 1215 347 l 1215 -173 l 1041 -173 l 1041 0 l 868 0 "},"g":{"x_min":173.625,"x_max":1215.375,"ha":1389,"o":"m 173 173 l 173 868 l 347 868 l 347 1041 l 1041 1041 l 1041 868 l 1215 868 l 1215 694 l 868 694 l 868 869 l 520 869 l 520 173 l 868 173 l 868 347 l 694 347 l 694 520 l 1215 520 l 1215 0 l 347 0 l 347 173 l 173 173 "},"–":{"x_min":347.25,"x_max":1215.375,"ha":1389,"o":"m 1215 694 l 1215 347 l 347 347 l 347 694 l 1215 694 "},"e":{"x_min":173.625,"x_max":1215.375,"ha":1389,"o":"m 1215 1041 l 1215 868 l 520 868 l 520 694 l 1043 694 l 1043 520 l 520 520 l 520 173 l 1215 173 l 1215 0 l 173 0 l 173 1041 l 1215 1041 "},"J":{"x_min":173.625,"x_max":1215.375,"ha":1389,"o":"m 173 173 l 173 520 l 520 520 l 520 173 l 694 173 l 694 868 l 520 868 l 520 1041 l 1215 1041 l 1215 868 l 1041 868 l 1041 173 l 868 173 l 868 0 l 347 0 l 347 173 l 173 173 "},"|":{"x_min":520.875,"x_max":868.125,"ha":1389,"o":"m 868 1041 l 868 0 l 520 0 l 520 1041 l 868 1041 "},"^":{"x_min":347.25,"x_max":1215.375,"ha":1389,"o":"m 694 1215 l 868 1215 l 868 1041 l 1041 1041 l 1041 868 l 1215 868 l 1215 694 l 1041 694 l 1041 868 l 868 868 l 868 1041 l 694 1041 l 694 1215 m 347 868 l 520 868 l 520 694 l 347 694 l 347 868 m 520 1041 l 694 1041 l 694 868 l 520 868 l 520 1041 "},"q":{"x_min":173.625,"x_max":1215.375,"ha":1389,"o":"m 173 173 l 173 868 l 347 868 l 347 1041 l 1041 1041 l 1041 868 l 1215 868 l 1215 347 l 1041 347 l 1041 868 l 520 868 l 520 173 l 868 173 l 868 0 l 347 0 l 347 173 l 173 173 m 868 173 l 868 347 l 694 347 l 694 520 l 868 520 l 868 347 l 1041 347 l 1041 173 l 1215 173 l 1215 0 l 1041 0 l 1041 173 l 868 173 "},"b":{"x_min":173.625,"x_max":1215.375,"ha":1389,"o":"m 1041 1041 l 1041 869 l 1215 869 l 1215 694 l 1041 694 l 1041 520 l 1215 520 l 1215 173 l 1041 173 l 1041 0 l 173 0 l 173 1041 l 1041 1041 m 520 173 l 868 173 l 868 520 l 520 520 l 520 173 m 520 694 l 868 694 l 868 869 l 520 869 l 520 694 "},"D":{"x_min":173.625,"x_max":1215.375,"ha":1389,"o":"m 1041 1041 l 1041 868 l 1215 868 l 1215 173 l 1041 173 l 1041 0 l 173 0 l 173 1041 l 1041 1041 m 347 173 l 694 173 l 694 868 l 347 868 l 347 173 "},"z":{"x_min":173.625,"x_max":1215.375,"ha":1389,"o":"m 347 347 l 347 520 l 520 520 l 520 694 l 694 694 l 694 868 l 173 868 l 173 1041 l 1215 1041 l 1215 694 l 1041 694 l 1041 520 l 868 520 l 868 347 l 694 347 l 694 173 l 1215 173 l 1215 0 l 173 0 l 173 347 l 347 347 "},"w":{"x_min":173.625,"x_max":1215.375,"ha":1389,"o":"m 347 1041 l 347 520 l 520 520 l 520 694 l 694 694 l 694 520 l 868 520 l 868 1041 l 1215 1041 l 1215 0 l 868 0 l 868 173 l 694 173 l 694 347 l 520 347 l 520 173 l 347 173 l 347 0 l 173 0 l 173 1041 l 347 1041 "},"$":{"x_min":173.625,"x_max":1389,"ha":1389,"o":"m 173 173 l 694 173 l 694 347 l 347 347 l 347 520 l 173 520 l 173 694 l 347 694 l 347 868 l 694 868 l 694 1041 l 868 1041 l 868 868 l 1215 868 l 1215 694 l 868 694 l 868 520 l 1215 520 l 1215 347 l 1389 347 l 1389 173 l 1215 173 l 1215 0 l 868 0 l 868 -173 l 694 -173 l 694 0 l 173 0 l 173 173 m 520 520 l 694 520 l 694 694 l 520 694 l 520 520 m 868 347 l 868 173 l 1041 173 l 1041 347 l 868 347 "},"™":{"x_min":0,"x_max":1215.375,"ha":1389,"o":"m 694 1041 l 868 1041 l 868 868 l 1041 868 l 1041 1041 l 1215 1041 l 1215 520 l 1041 520 l 1041 694 l 868 694 l 868 520 l 694 520 l 694 1041 m 0 1041 l 520 1041 l 520 868 l 347 868 l 347 520 l 173 520 l 173 868 l 0 868 l 0 1041 "},"\\":{"x_min":347.25,"x_max":1215.375,"ha":1389,"o":"m 347 868 l 520 868 l 520 694 l 694 694 l 694 520 l 868 520 l 868 347 l 1041 347 l 1041 173 l 1215 173 l 1215 0 l 1041 0 l 1041 173 l 868 173 l 868 347 l 694 347 l 694 520 l 520 520 l 520 694 l 347 694 l 347 868 "},"~":{"x_min":173.625,"x_max":1389,"ha":1389,"o":"m 694 868 l 520 868 l 520 694 l 173 694 l 173 868 l 347 868 l 347 1041 l 868 1041 l 868 868 l 1041 868 l 1041 1041 l 1389 1041 l 1389 868 l 1215 868 l 1215 694 l 694 694 l 694 868 "},"-":{"x_min":173.625,"x_max":1215.375,"ha":1389,"o":"m 173 347 l 173 520 l 1215 520 l 1215 347 l 520 347 l 173 347 "},"Q":{"x_min":173.625,"x_max":1215.375,"ha":1389,"o":"m 173 173 l 173 868 l 347 868 l 347 1041 l 1041 1041 l 1041 868 l 1215 868 l 1215 347 l 1041 347 l 1041 868 l 520 868 l 520 173 l 868 173 l 868 0 l 347 0 l 347 173 l 173 173 m 868 173 l 868 347 l 694 347 l 694 520 l 868 520 l 868 347 l 1041 347 l 1041 173 l 1215 173 l 1215 0 l 1041 0 l 1041 173 l 868 173 "},"M":{"x_min":173.625,"x_max":1215.375,"ha":1389,"o":"m 347 1041 l 347 868 l 520 868 l 520 694 l 694 694 l 694 868 l 868 868 l 868 1041 l 1215 1041 l 1215 0 l 868 0 l 868 520 l 694 520 l 694 347 l 520 347 l 520 520 l 347 520 l 347 0 l 173 0 l 173 1041 l 347 1041 "},"C":{"x_min":173.625,"x_max":1215.375,"ha":1389,"o":"m 173 173 l 173 868 l 347 868 l 347 1041 l 1041 1041 l 1041 868 l 1215 868 l 1215 694 l 868 694 l 868 869 l 520 869 l 520 173 l 868 173 l 868 347 l 1215 347 l 1215 173 l 1041 173 l 1041 0 l 347 0 l 347 173 l 173 173 "},"[":{"x_min":347.25,"x_max":1215.375,"ha":1389,"o":"m 868 868 l 868 173 l 1215 173 l 1215 0 l 347 0 l 347 1041 l 1215 1041 l 1215 868 l 868 868 "},"L":{"x_min":173.625,"x_max":1215.375,"ha":1389,"o":"m 520 1041 l 520 173 l 1215 173 l 1215 0 l 173 0 l 173 1041 l 520 1041 "},"!":{"x_min":520.875,"x_max":1041.75,"ha":1389,"o":"m 1041 347 l 520 347 l 520 1041 l 1041 1041 l 1041 347 m 520 173 l 1041 173 l 1041 0 l 520 0 l 520 173 "}," ":{"x_min":0,"x_max":0,"ha":1389},"{":{"x_min":173.625,"x_max":1215.375,"ha":1389,"o":"m 173 694 l 347 694 l 347 868 l 520 868 l 520 1041 l 1215 1041 l 1215 868 l 868 868 l 868 173 l 1215 173 l 1215 0 l 520 0 l 520 173 l 347 173 l 347 520 l 173 520 l 173 694 "},"X":{"x_min":173.625,"x_max":1215.375,"ha":1389,"o":"m 520 347 l 520 173 l 347 173 l 347 0 l 173 0 l 173 347 l 347 347 l 347 520 l 520 520 l 520 694 l 347 694 l 347 868 l 173 868 l 173 1041 l 347 1041 l 347 868 l 520 868 l 520 694 l 694 694 l 694 868 l 868 868 l 868 1041 l 1215 1041 l 1215 868 l 1041 868 l 1041 694 l 868 694 l 868 347 l 1041 347 l 1041 173 l 1215 173 l 1215 0 l 1041 0 l 1041 173 l 868 173 l 868 347 l 520 347 "},"P":{"x_min":173.625,"x_max":1215.375,"ha":1389,"o":"m 1041 1041 l 1041 868 l 1215 868 l 1215 520 l 1041 520 l 1041 347 l 520 347 l 520 0 l 173 0 l 173 1041 l 1041 1041 m 520 520 l 868 520 l 868 868 l 520 868 l 520 520 "},"%":{"x_min":173.625,"x_max":1389,"ha":1389,"o":"m 1041 347 l 1389 347 l 1389 0 l 1041 0 l 1041 347 m 173 868 l 520 868 l 520 520 l 173 520 l 173 868 m 868 694 l 1041 694 l 1041 520 l 868 520 l 868 694 m 694 520 l 868 520 l 868 347 l 694 347 l 694 520 m 347 173 l 520 173 l 520 0 l 347 0 l 347 173 m 520 347 l 694 347 l 694 173 l 520 173 l 520 347 m 1041 868 l 1215 868 l 1215 694 l 1041 694 l 1041 868 "},"#":{"x_min":173.625,"x_max":1215.375,"ha":1389,"o":"m 868 173 l 520 173 l 520 0 l 347 0 l 347 173 l 173 173 l 173 347 l 347 347 l 347 520 l 173 520 l 173 694 l 347 694 l 347 868 l 520 868 l 520 694 l 868 694 l 868 868 l 1041 868 l 1041 694 l 1215 694 l 1215 520 l 1041 520 l 1041 347 l 1215 347 l 1215 173 l 1041 173 l 1041 0 l 868 0 l 868 173 m 520 347 l 868 347 l 868 520 l 520 520 l 520 347 "},"_":{"x_min":0,"x_max":1389,"ha":1389,"o":"m 0 0 l 1389 0 l 1389 -173 l 0 -173 l 0 0 "},"+":{"x_min":173.625,"x_max":1215.375,"ha":1389,"o":"m 520 0 l 520 347 l 173 347 l 173 520 l 520 520 l 520 868 l 868 868 l 868 520 l 1215 520 l 1215 347 l 868 347 l 868 0 l 520 0 "},"‚":{"x_min":520.875,"x_max":868.125,"ha":1389,"o":"m 520 0 l 520 347 l 868 347 l 868 -173 l 694 -173 l 694 0 l 520 0 "},")":{"x_min":173.625,"x_max":1041.75,"ha":1389,"o":"m 173 868 l 173 1041 l 868 1041 l 868 868 l 1041 868 l 1041 173 l 868 173 l 868 0 l 173 0 l 173 173 l 520 173 l 520 868 l 173 868 "},"'":{"x_min":868.125,"x_max":1215.375,"ha":1389,"o":"m 868 1041 l 1215 1041 l 1215 694 l 1041 694 l 1041 520 l 868 520 l 868 1041 "},"}":{"x_min":173.625,"x_max":1215.375,"ha":1389,"o":"m 1041 173 l 868 173 l 868 0 l 173 0 l 173 173 l 520 173 l 520 868 l 173 868 l 173 1041 l 868 1041 l 868 868 l 1041 868 l 1041 694 l 1215 694 l 1215 520 l 1041 520 l 1041 173 "},"a":{"x_min":173.625,"x_max":1215.375,"ha":1389,"o":"m 347 1041 l 1041 1041 l 1041 868 l 1215 868 l 1215 0 l 694 0 l 694 347 l 347 347 l 347 0 l 173 0 l 173 868 l 347 868 l 347 520 l 694 520 l 694 868 l 347 868 l 347 1041 "},"T":{"x_min":173.625,"x_max":1215.375,"ha":1389,"o":"m 173 868 l 173 1041 l 1215 1041 l 1215 868 l 868 868 l 868 0 l 520 0 l 520 868 l 173 868 "},"—":{"x_min":173.625,"x_max":1215.375,"ha":1389,"o":"m 1215 694 l 1215 347 l 173 347 l 173 694 l 1215 694 "},"=":{"x_min":347.25,"x_max":1041.75,"ha":1389,"o":"m 1041 868 l 1041 520 l 347 520 l 347 868 l 1041 868 m 347 347 l 1041 347 l 1041 0 l 347 0 l 347 347 "},"N":{"x_min":173.625,"x_max":1215.375,"ha":1389,"o":"m 347 1041 l 347 868 l 520 868 l 520 694 l 694 694 l 694 520 l 868 520 l 868 1041 l 1215 1041 l 1215 0 l 868 0 l 868 173 l 694 173 l 694 347 l 520 347 l 520 520 l 347 520 l 347 0 l 173 0 l 173 1041 l 347 1041 "},"2":{"x_min":173.625,"x_max":1215.375,"ha":1389,"o":"m 347 347 l 347 520 l 694 520 l 694 868 l 347 868 l 347 1041 l 1041 1041 l 1041 868 l 1215 868 l 1215 520 l 1041 520 l 1041 347 l 694 347 l 694 173 l 1215 173 l 1215 0 l 173 0 l 173 347 l 347 347 m 347 868 l 347 694 l 173 694 l 173 868 l 347 868 "},"j":{"x_min":173.625,"x_max":1215.375,"ha":1389,"o":"m 173 173 l 173 520 l 520 520 l 520 173 l 694 173 l 694 868 l 520 868 l 520 1041 l 1215 1041 l 1215 868 l 1041 868 l 1041 173 l 868 173 l 868 0 l 347 0 l 347 173 l 173 173 "},"Z":{"x_min":173.625,"x_max":1215.375,"ha":1389,"o":"m 347 347 l 347 520 l 520 520 l 520 694 l 694 694 l 694 868 l 173 868 l 173 1041 l 1215 1041 l 1215 694 l 1041 694 l 1041 520 l 868 520 l 868 347 l 694 347 l 694 173 l 1215 173 l 1215 0 l 173 0 l 173 347 l 347 347 "},"u":{"x_min":173.625,"x_max":1215.375,"ha":1389,"o":"m 694 173 l 694 347 l 868 347 l 868 1041 l 1215 1041 l 1215 173 l 1041 173 l 1041 0 l 347 0 l 347 173 l 694 173 m 347 1041 l 347 173 l 173 173 l 173 1041 l 347 1041 "},"1":{"x_min":347.25,"x_max":1041.75,"ha":1389,"o":"m 520 173 l 520 694 l 347 694 l 347 868 l 520 868 l 520 1041 l 868 1041 l 868 173 l 1041 173 l 1041 0 l 347 0 l 347 173 l 520 173 "},"›":{"x_min":173.625,"x_max":694.5,"ha":1389,"o":"m 520 520 l 347 520 l 347 694 l 173 694 l 173 868 l 347 868 l 347 694 l 520 694 l 520 520 l 694 520 l 694 347 l 520 347 l 520 520 m 520 173 l 347 173 l 347 347 l 520 347 l 520 173 m 347 0 l 173 0 l 173 173 l 347 173 l 347 0 "},"k":{"x_min":173.625,"x_max":1215.375,"ha":1389,"o":"m 520 1041 l 520 694 l 694 694 l 694 868 l 868 868 l 868 1041 l 1215 1041 l 1215 868 l 1041 868 l 1041 694 l 868 694 l 868 347 l 1041 347 l 1041 173 l 1215 173 l 1215 0 l 868 0 l 868 173 l 694 173 l 694 347 l 520 347 l 520 0 l 173 0 l 173 1041 l 520 1041 "},"€":{"x_min":173.625,"x_max":1215.375,"ha":1389,"o":"m 694 868 l 694 694 l 1043 694 l 1043 520 l 694 520 l 694 173 l 1215 173 l 1215 0 l 520 0 l 520 173 l 347 173 l 347 520 l 173 520 l 173 694 l 347 694 l 347 868 l 520 868 l 520 1041 l 1215 1041 l 1215 868 l 694 868 "},"<":{"x_min":694.5,"x_max":1215.375,"ha":1389,"o":"m 694 520 l 868 520 l 868 347 l 1041 347 l 1041 173 l 1215 173 l 1215 0 l 1041 0 l 1041 173 l 868 173 l 868 347 l 694 347 l 694 520 m 1041 868 l 1215 868 l 1215 694 l 1041 694 l 1041 868 m 868 694 l 1041 694 l 1041 520 l 868 520 l 868 694 "},"t":{"x_min":173.625,"x_max":1215.375,"ha":1389,"o":"m 173 868 l 173 1041 l 1215 1041 l 1215 868 l 868 868 l 868 0 l 520 0 l 520 868 l 173 868 "},"W":{"x_min":173.625,"x_max":1215.375,"ha":1389,"o":"m 347 1041 l 347 520 l 520 520 l 520 694 l 694 694 l 694 520 l 868 520 l 868 1041 l 1215 1041 l 1215 0 l 868 0 l 868 173 l 694 173 l 694 347 l 520 347 l 520 173 l 347 173 l 347 0 l 173 0 l 173 1041 l 347 1041 "},"v":{"x_min":173.625,"x_max":1215.375,"ha":1389,"o":"m 694 173 l 694 347 l 868 347 l 868 1041 l 1215 1041 l 1215 347 l 1041 347 l 1041 173 l 868 173 l 868 0 l 520 0 l 520 173 l 694 173 m 347 1041 l 347 347 l 520 347 l 520 173 l 347 173 l 347 347 l 173 347 l 173 1041 l 347 1041 "},">":{"x_min":347.25,"x_max":868.125,"ha":1389,"o":"m 694 347 l 694 520 l 520 520 l 520 694 l 347 694 l 347 868 l 520 868 l 520 694 l 694 694 l 694 520 l 868 520 l 868 347 l 694 347 m 520 347 l 694 347 l 694 173 l 520 173 l 520 347 m 347 173 l 520 173 l 520 0 l 347 0 l 347 173 "},"s":{"x_min":173.625,"x_max":1215.375,"ha":1389,"o":"m 694 173 l 694 520 l 347 520 l 347 694 l 173 694 l 173 868 l 347 868 l 347 1041 l 1041 1041 l 1041 868 l 520 868 l 520 694 l 1041 694 l 1041 520 l 1215 520 l 1215 173 l 1041 173 l 1041 0 l 347 0 l 347 173 l 694 173 m 347 347 l 347 173 l 173 173 l 173 347 l 347 347 "},"B":{"x_min":173.625,"x_max":1215.375,"ha":1389,"o":"m 1041 1041 l 1041 869 l 1215 869 l 1215 694 l 1041 694 l 1041 520 l 1215 520 l 1215 173 l 1041 173 l 1041 0 l 173 0 l 173 1041 l 1041 1041 m 520 173 l 868 173 l 868 520 l 520 520 l 520 173 m 520 694 l 868 694 l 868 869 l 520 869 l 520 694 "},"?":{"x_min":173.625,"x_max":1215.375,"ha":1389,"o":"m 347 347 l 347 520 l 694 520 l 694 868 l 347 868 l 347 1041 l 1041 1041 l 1041 868 l 1215 868 l 1215 520 l 1041 520 l 1041 347 l 347 347 m 347 0 l 347 173 l 868 173 l 868 0 l 347 0 m 347 868 l 347 694 l 173 694 l 173 868 l 347 868 "},"H":{"x_min":173.625,"x_max":1215.375,"ha":1389,"o":"m 347 1041 l 347 694 l 868 694 l 868 1041 l 1215 1041 l 1215 0 l 868 0 l 868 520 l 347 520 l 347 0 l 173 0 l 173 1041 l 347 1041 "},"c":{"x_min":173.625,"x_max":1215.375,"ha":1389,"o":"m 173 173 l 173 868 l 347 868 l 347 1041 l 1041 1041 l 1041 868 l 1215 868 l 1215 694 l 868 694 l 868 869 l 520 869 l 520 173 l 868 173 l 868 347 l 1215 347 l 1215 173 l 1041 173 l 1041 0 l 347 0 l 347 173 l 173 173 "},"&":{"x_min":173.625,"x_max":1215.375,"ha":1389,"o":"m 1041 173 l 868 173 l 868 0 l 347 0 l 347 173 l 173 173 l 173 520 l 347 520 l 347 173 l 694 173 l 694 520 l 347 520 l 347 694 l 173 694 l 173 868 l 347 868 l 347 694 l 694 694 l 694 868 l 347 868 l 347 1041 l 868 1041 l 868 868 l 1041 868 l 1041 694 l 868 694 l 868 347 l 1041 347 l 1041 173 l 1215 173 l 1215 0 l 1041 0 l 1041 173 m 1041 520 l 1215 520 l 1215 347 l 1041 347 l 1041 520 "},"I":{"x_min":347.25,"x_max":1041.75,"ha":1389,"o":"m 520 173 l 520 868 l 347 868 l 347 1041 l 1041 1041 l 1041 868 l 868 868 l 868 173 l 1041 173 l 1041 0 l 347 0 l 347 173 l 520 173 "},"•":{"x_min":347.25,"x_max":1041.75,"ha":1389,"o":"m 347 694 l 520 694 l 520 868 l 868 868 l 868 694 l 1041 694 l 1041 347 l 868 347 l 868 173 l 520 173 l 520 347 l 347 347 l 347 694 "},"G":{"x_min":173.625,"x_max":1215.375,"ha":1389,"o":"m 173 173 l 173 868 l 347 868 l 347 1041 l 1041 1041 l 1041 868 l 1215 868 l 1215 694 l 868 694 l 868 869 l 520 869 l 520 173 l 868 173 l 868 347 l 694 347 l 694 520 l 1215 520 l 1215 0 l 347 0 l 347 173 l 173 173 "},"(":{"x_min":347.25,"x_max":1215.375,"ha":1389,"o":"m 868 868 l 868 173 l 1215 173 l 1215 0 l 520 0 l 520 173 l 347 173 l 347 868 l 520 868 l 520 1041 l 1215 1041 l 1215 868 l 868 868 "},"`":{"x_min":868.125,"x_max":1215.375,"ha":1389,"o":"m 868 694 l 868 1041 l 1215 1041 l 1215 520 l 1041 520 l 1041 694 l 868 694 "},"U":{"x_min":173.625,"x_max":1215.375,"ha":1389,"o":"m 694 173 l 694 347 l 868 347 l 868 1041 l 1215 1041 l 1215 173 l 1041 173 l 1041 0 l 347 0 l 347 173 l 694 173 m 347 1041 l 347 173 l 173 173 l 173 1041 l 347 1041 "},"F":{"x_min":173.625,"x_max":1215.375,"ha":1389,"o":"m 1215 1041 l 1215 868 l 520 868 l 520 520 l 1043 520 l 1043 347 l 520 347 l 520 0 l 173 0 l 173 1041 l 1215 1041 "},"r":{"x_min":173.625,"x_max":1215.375,"ha":1389,"o":"m 694 173 l 694 347 l 520 347 l 520 0 l 173 0 l 173 1041 l 1041 1041 l 1041 868 l 1215 868 l 1215 520 l 1041 520 l 1041 347 l 868 347 l 868 173 l 1215 173 l 1215 0 l 868 0 l 868 173 l 694 173 m 520 520 l 868 520 l 868 868 l 520 868 l 520 520 "},":":{"x_min":520.875,"x_max":868.125,"ha":1389,"o":"m 868 347 l 868 0 l 520 0 l 520 347 l 868 347 m 520 868 l 868 868 l 868 520 l 520 520 l 520 868 "},"x":{"x_min":173.625,"x_max":1215.375,"ha":1389,"o":"m 520 347 l 520 173 l 347 173 l 347 0 l 173 0 l 173 347 l 347 347 l 347 520 l 520 520 l 520 694 l 347 694 l 347 868 l 173 868 l 173 1041 l 347 1041 l 347 868 l 520 868 l 520 694 l 694 694 l 694 868 l 868 868 l 868 1041 l 1215 1041 l 1215 868 l 1041 868 l 1041 694 l 868 694 l 868 347 l 1041 347 l 1041 173 l 1215 173 l 1215 0 l 1041 0 l 1041 173 l 868 173 l 868 347 l 520 347 "},"*":{"x_min":0,"x_max":1215.375,"ha":1389,"o":"m 868 173 l 347 173 l 347 0 l 0 0 l 0 173 l 173 173 l 173 347 l 347 347 l 347 520 l 173 520 l 173 694 l 0 694 l 0 868 l 520 868 l 520 1215 l 694 1215 l 694 868 l 1215 868 l 1215 694 l 1041 694 l 1041 520 l 868 520 l 868 347 l 1041 347 l 1041 173 l 1215 173 l 1215 0 l 868 0 l 868 173 "},"V":{"x_min":173.625,"x_max":1215.375,"ha":1389,"o":"m 694 173 l 694 347 l 868 347 l 868 1041 l 1215 1041 l 1215 347 l 1041 347 l 1041 173 l 868 173 l 868 0 l 520 0 l 520 173 l 694 173 m 347 1041 l 347 347 l 520 347 l 520 173 l 347 173 l 347 347 l 173 347 l 173 1041 l 347 1041 "},"h":{"x_min":173.625,"x_max":1215.375,"ha":1389,"o":"m 347 1041 l 347 694 l 868 694 l 868 1041 l 1215 1041 l 1215 0 l 868 0 l 868 520 l 347 520 l 347 0 l 173 0 l 173 1041 l 347 1041 "},"0":{"x_min":173.625,"x_max":1215.375,"ha":1389,"o":"m 173 173 l 173 868 l 347 868 l 347 1041 l 1041 1041 l 1041 868 l 1215 868 l 1215 173 l 1041 173 l 1041 0 l 347 0 l 347 173 l 173 173 m 520 173 l 868 173 l 868 868 l 520 868 l 520 173 "},".":{"x_min":520.875,"x_max":868.125,"ha":1389,"o":"m 868 347 l 868 0 l 520 0 l 520 347 l 868 347 "},"@":{"x_min":173.625,"x_max":1389,"ha":1389,"o":"m 520 173 l 520 694 l 347 694 l 347 868 l 520 868 l 520 694 l 1041 694 l 1041 347 l 1214 347 l 1214 173 l 520 173 m 1389 347 l 1215 347 l 1215 694 l 1041 694 l 1041 868 l 520 868 l 520 1041 l 1041 1041 l 1041 868 l 1215 868 l 1215 694 l 1389 694 l 1389 347 m 347 0 l 347 173 l 173 173 l 173 694 l 347 694 l 347 173 l 520 173 l 520 0 l 347 0 m 1041 0 l 1041 -173 l 520 -173 l 520 0 l 1041 0 m 867 520 l 694 520 l 694 347 l 867 347 l 867 520 "},"f":{"x_min":173.625,"x_max":1215.375,"ha":1389,"o":"m 1215 1041 l 1215 868 l 520 868 l 520 520 l 1043 520 l 1043 347 l 520 347 l 520 0 l 173 0 l 173 1041 l 1215 1041 "},";":{"x_min":520.875,"x_max":868.125,"ha":1389,"o":"m 520 0 l 520 347 l 868 347 l 868 -173 l 694 -173 l 694 0 l 520 0 m 520 868 l 868 868 l 868 520 l 520 520 l 520 868 "},"i":{"x_min":347.25,"x_max":1041.75,"ha":1389,"o":"m 520 173 l 520 868 l 347 868 l 347 1041 l 1041 1041 l 1041 868 l 868 868 l 868 173 l 1041 173 l 1041 0 l 347 0 l 347 173 l 520 173 "},"6":{"x_min":173.625,"x_max":1215.375,"ha":1389,"o":"m 173 173 l 173 868 l 347 868 l 347 1041 l 1041 1041 l 1041 868 l 520 868 l 520 694 l 1041 694 l 1041 520 l 1215 520 l 1215 173 l 1041 173 l 1041 0 l 347 0 l 347 173 l 173 173 m 520 173 l 868 173 l 868 520 l 520 520 l 520 173 "},"A":{"x_min":173.625,"x_max":1215.375,"ha":1389,"o":"m 347 1041 l 1041 1041 l 1041 868 l 1215 868 l 1215 0 l 694 0 l 694 347 l 347 347 l 347 0 l 173 0 l 173 868 l 347 868 l 347 520 l 694 520 l 694 868 l 347 868 l 347 1041 "},"n":{"x_min":173.625,"x_max":1215.375,"ha":1389,"o":"m 347 1041 l 347 868 l 520 868 l 520 694 l 694 694 l 694 520 l 868 520 l 868 1041 l 1215 1041 l 1215 0 l 868 0 l 868 173 l 694 173 l 694 347 l 520 347 l 520 520 l 347 520 l 347 0 l 173 0 l 173 1041 l 347 1041 "},"O":{"x_min":173.625,"x_max":1215.375,"ha":1389,"o":"m 173 173 l 173 868 l 347 868 l 347 1041 l 1041 1041 l 1041 868 l 1215 868 l 1215 173 l 1041 173 l 1041 0 l 347 0 l 347 173 l 173 173 m 520 173 l 868 173 l 868 868 l 520 868 l 520 173 "},"3":{"x_min":173.625,"x_max":1215.375,"ha":1389,"o":"m 347 694 l 694 694 l 694 868 l 173 868 l 173 1041 l 1041 1041 l 1041 868 l 1215 868 l 1215 694 l 1041 694 l 1041 520 l 1215 520 l 1215 173 l 1041 173 l 1041 0 l 173 0 l 173 173 l 694 173 l 694 520 l 347 520 l 347 694 "},"]":{"x_min":173.625,"x_max":1041.75,"ha":1389,"o":"m 173 868 l 173 1041 l 1041 1041 l 1041 0 l 173 0 l 173 173 l 520 173 l 520 868 l 173 868 "},"m":{"x_min":173.625,"x_max":1215.375,"ha":1389,"o":"m 347 1041 l 347 868 l 520 868 l 520 694 l 694 694 l 694 868 l 868 868 l 868 1041 l 1215 1041 l 1215 0 l 868 0 l 868 520 l 694 520 l 694 347 l 520 347 l 520 520 l 347 520 l 347 0 l 173 0 l 173 1041 l 347 1041 "},"9":{"x_min":173.625,"x_max":1215.375,"ha":1389,"o":"m 347 1041 l 1041 1041 l 1041 868 l 1215 868 l 1215 173 l 1041 173 l 1041 0 l 347 0 l 347 173 l 694 173 l 694 347 l 347 347 l 347 520 l 173 520 l 173 868 l 347 868 l 347 1041 m 347 520 l 694 520 l 694 868 l 347 868 l 347 520 "},"l":{"x_min":173.625,"x_max":1215.375,"ha":1389,"o":"m 520 1041 l 520 173 l 1215 173 l 1215 0 l 173 0 l 173 1041 l 520 1041 "},"8":{"x_min":173.625,"x_max":1215.375,"ha":1389,"o":"m 347 1041 l 1041 1041 l 1041 868 l 1215 868 l 1215 694 l 1041 694 l 1041 520 l 1215 520 l 1215 173 l 1041 173 l 1041 0 l 347 0 l 347 173 l 173 173 l 173 520 l 347 520 l 347 173 l 694 173 l 694 520 l 347 520 l 347 694 l 173 694 l 173 868 l 347 868 l 347 1041 m 347 694 l 694 694 l 694 868 l 347 868 l 347 694 "},"p":{"x_min":173.625,"x_max":1215.375,"ha":1389,"o":"m 1041 1041 l 1041 868 l 1215 868 l 1215 520 l 1041 520 l 1041 347 l 520 347 l 520 0 l 173 0 l 173 1041 l 1041 1041 m 520 520 l 868 520 l 868 868 l 520 868 l 520 520 "},"4":{"x_min":173.625,"x_max":1215.375,"ha":1389,"o":"m 173 173 l 173 868 l 347 868 l 347 1041 l 1041 1041 l 1041 520 l 1215 520 l 1215 173 l 1041 173 l 1041 0 l 694 0 l 694 173 l 173 173 m 347 347 l 694 347 l 694 868 l 520 868 l 520 694 l 347 694 l 347 347 "},"R":{"x_min":173.625,"x_max":1215.375,"ha":1389,"o":"m 694 173 l 694 347 l 520 347 l 520 0 l 173 0 l 173 1041 l 1041 1041 l 1041 868 l 1215 868 l 1215 520 l 1041 520 l 1041 347 l 868 347 l 868 173 l 1215 173 l 1215 0 l 868 0 l 868 173 l 694 173 m 520 520 l 868 520 l 868 868 l 520 868 l 520 520 "},"o":{"x_min":173.625,"x_max":1215.375,"ha":1389,"o":"m 173 173 l 173 868 l 347 868 l 347 1041 l 1041 1041 l 1041 868 l 1215 868 l 1215 173 l 1041 173 l 1041 0 l 347 0 l 347 173 l 173 173 m 520 173 l 868 173 l 868 868 l 520 868 l 520 173 "},"5":{"x_min":173.625,"x_max":1215.375,"ha":1389,"o":"m 694 173 l 694 520 l 173 520 l 173 1041 l 1041 1041 l 1041 868 l 520 868 l 520 694 l 1041 694 l 1041 520 l 1215 520 l 1215 173 l 1041 173 l 1041 0 l 347 0 l 347 173 l 694 173 m 347 347 l 347 173 l 173 173 l 173 347 l 347 347 "}}}
